<svg width="21" height="20" viewBox="0 0 21 20" fill="none" xmlns="http://www.w3.org/2000/svg">
<path d="M9.66663 1.66666H7.99996C3.83329 1.66666 2.16663 3.33332 2.16663 7.49999V12.5C2.16663 16.6667 3.83329 18.3333 7.99996 18.3333H13C17.1666 18.3333 18.8333 16.6667 18.8333 12.5V10.8333" stroke="#191919" stroke-width="1.5" stroke-linecap="round" stroke-linejoin="round"/>
<path d="M13.8667 2.51666L7.30002 9.08333C7.05002 9.33333 6.80002 9.825 6.75002 10.1833L6.39169 12.6917C6.25835 13.6 6.90002 14.2333 7.80835 14.1083L10.3167 13.75C10.6667 13.7 11.1584 13.45 11.4167 13.2L17.9834 6.63333C19.1167 5.5 19.65 4.18333 17.9834 2.51666C16.3167 0.849997 15 1.38333 13.8667 2.51666Z" stroke="#191919" stroke-width="1.5" stroke-miterlimit="10" stroke-linecap="round" stroke-linejoin="round"/>
<path d="M12.925 3.45831C13.4834 5.44998 15.0417 7.00831 17.0417 7.57498" stroke="#191919" stroke-width="1.5" stroke-miterlimit="10" stroke-linecap="round" stroke-linejoin="round"/>
</svg>
