<svg width="21" height="20" viewBox="0 0 21 20" fill="none" xmlns="http://www.w3.org/2000/svg">
<path d="M15.5 5.83332V14.1667C15.5 14.6833 15.4833 15.1417 15.425 15.55C15.1833 17.7417 14.15 18.3333 11.3333 18.3333H9.66667C6.85 18.3333 5.81667 17.7417 5.575 15.55C5.51667 15.1417 5.5 14.6833 5.5 14.1667V5.83332C5.5 5.31666 5.51667 4.85832 5.575 4.44999C5.81667 2.25832 6.85 1.66666 9.66667 1.66666H11.3333C14.15 1.66666 15.1833 2.25832 15.425 4.44999C15.4833 4.85832 15.5 5.31666 15.5 5.83332Z" stroke="#191919" stroke-width="1.5" stroke-linecap="round" stroke-linejoin="round"/>
<path d="M5.49996 14.1667C5.49996 14.6833 5.51663 15.1417 5.57496 15.55C5.45829 15.5583 5.34996 15.5583 5.22496 15.5583H4.94163C2.72496 15.5583 2.16663 15 2.16663 12.775V7.22501C2.16663 5.00001 2.72496 4.44168 4.94163 4.44168H5.22496C5.34996 4.44168 5.45829 4.44168 5.57496 4.45001C5.51663 4.85835 5.49996 5.31668 5.49996 5.83335V14.1667Z" stroke="#191919" stroke-width="1.5" stroke-linecap="round" stroke-linejoin="round"/>
<path d="M18.8334 7.22501V12.775C18.8334 15 18.275 15.5583 16.0584 15.5583H15.775C15.65 15.5583 15.5417 15.5583 15.425 15.55C15.4834 15.1417 15.5 14.6833 15.5 14.1667V5.83335C15.5 5.31668 15.4834 4.85835 15.425 4.45001C15.5417 4.44168 15.65 4.44168 15.775 4.44168H16.0584C18.275 4.44168 18.8334 5.00001 18.8334 7.22501Z" stroke="#191919" stroke-width="1.5" stroke-linecap="round" stroke-linejoin="round"/>
</svg>
