<svg width="21" height="20" viewBox="0 0 21 20" fill="none" xmlns="http://www.w3.org/2000/svg">
<path d="M11.0648 16.6309C11.2937 16.6841 11.3147 16.984 11.0917 17.0583L9.77504 17.4917C6.46671 18.5583 4.72504 17.6667 3.65004 14.3583L2.58337 11.0667C1.51671 7.75833 2.40004 6.00833 5.70837 4.94166L5.9757 4.85313C6.37857 4.71972 6.77416 5.12508 6.66525 5.53525C6.63457 5.6508 6.60457 5.7696 6.57504 5.89166L5.75837 9.38333C4.84171 13.3083 6.18337 15.475 10.1084 16.4083L11.0648 16.6309Z" fill="#171717"/>
<path d="M14.8083 2.67499L13.4167 2.34999C10.6333 1.69165 8.97499 2.23332 7.99999 4.24999C7.74999 4.75832 7.54999 5.37499 7.38332 6.08332L6.56665 9.57499C5.74999 13.0583 6.82499 14.775 10.3 15.6L11.7 15.9333C12.1833 16.05 12.6333 16.125 13.05 16.1583C15.65 16.4083 17.0333 15.1917 17.7333 12.1833L18.55 8.69999C19.3667 5.21665 18.3 3.49165 14.8083 2.67499ZM13.2417 11.1083C13.1667 11.3917 12.9167 11.575 12.6333 11.575C12.5833 11.575 12.5333 11.5667 12.475 11.5583L10.05 10.9417C9.71665 10.8583 9.51665 10.5167 9.59999 10.1833C9.68332 9.84999 10.025 9.64999 10.3583 9.73332L12.7833 10.35C13.125 10.4333 13.325 10.775 13.2417 11.1083ZM15.6833 8.29165C15.6083 8.57499 15.3583 8.75832 15.075 8.75832C15.025 8.75832 14.975 8.74999 14.9167 8.74165L10.875 7.71665C10.5417 7.63332 10.3417 7.29165 10.425 6.95832C10.5083 6.62499 10.85 6.42499 11.1833 6.50832L15.225 7.53332C15.5667 7.60832 15.7667 7.94999 15.6833 8.29165Z" fill="#171717"/>
</svg>
