<svg width="28" height="28" viewBox="0 0 28 28" fill="none" xmlns="http://www.w3.org/2000/svg">
<path d="M18.6663 15.05V19.95C18.6663 24.0333 17.033 25.6667 12.9497 25.6667H8.04967C3.96634 25.6667 2.33301 24.0333 2.33301 19.95V15.05C2.33301 10.9667 3.96634 9.33333 8.04967 9.33333H12.9497C17.033 9.33333 18.6663 10.9667 18.6663 15.05Z" stroke="#191919" stroke-width="1.5" stroke-linecap="round" stroke-linejoin="round"/>
<path d="M25.6663 8.04999V12.95C25.6663 17.0333 24.033 18.6667 19.9497 18.6667H18.6663V15.05C18.6663 10.9667 17.033 9.33333 12.9497 9.33333H9.33301V8.04999C9.33301 3.96666 10.9663 2.33333 15.0497 2.33333H19.9497C24.033 2.33333 25.6663 3.96666 25.6663 8.04999Z" stroke="#191919" stroke-width="1.5" stroke-linecap="round" stroke-linejoin="round"/>
</svg>
