<svg width="28" height="28" viewBox="0 0 28 28" fill="none" xmlns="http://www.w3.org/2000/svg">
<path d="M16.0187 4.095L18.072 8.20167C18.352 8.77334 19.0987 9.32167 19.7287 9.42667L23.4504 10.045C25.8304 10.4417 26.3904 12.1683 24.6754 13.8717L21.782 16.765C21.292 17.255 21.0237 18.2 21.1754 18.8767L22.0037 22.4583C22.657 25.2933 21.152 26.39 18.6437 24.9083L15.1554 22.8433C14.5254 22.47 13.487 22.47 12.8454 22.8433L9.35705 24.9083C6.86038 26.39 5.34372 25.2817 5.99705 22.4583L6.82538 18.8767C6.97705 18.2 6.70872 17.255 6.21872 16.765L3.32538 13.8717C1.62205 12.1683 2.17038 10.4417 4.55038 10.045L8.27205 9.42667C8.89038 9.32167 9.63705 8.77334 9.91705 8.20167L11.9704 4.095C13.0904 1.86667 14.9104 1.86667 16.0187 4.095Z" fill="#C59B68"/>
</svg>
