<svg width="17" height="16" viewBox="0 0 17 16" fill="none" xmlns="http://www.w3.org/2000/svg">
<path d="M15.4167 4.33334H11.4167" stroke="#C59B68" stroke-width="1.5" stroke-miterlimit="10" stroke-linecap="round" stroke-linejoin="round"/>
<path d="M4.74992 4.33334H2.08325" stroke="#C59B68" stroke-width="1.5" stroke-miterlimit="10" stroke-linecap="round" stroke-linejoin="round"/>
<path d="M7.41659 6.66667C8.70525 6.66667 9.74992 5.622 9.74992 4.33333C9.74992 3.04467 8.70525 2 7.41659 2C6.12792 2 5.08325 3.04467 5.08325 4.33333C5.08325 5.622 6.12792 6.66667 7.41659 6.66667Z" stroke="#C59B68" stroke-width="1.5" stroke-miterlimit="10" stroke-linecap="round" stroke-linejoin="round"/>
<path d="M15.4167 11.6667H12.75" stroke="#C59B68" stroke-width="1.5" stroke-miterlimit="10" stroke-linecap="round" stroke-linejoin="round"/>
<path d="M6.08325 11.6667H2.08325" stroke="#C59B68" stroke-width="1.5" stroke-miterlimit="10" stroke-linecap="round" stroke-linejoin="round"/>
<path d="M10.0833 14C11.372 14 12.4167 12.9553 12.4167 11.6667C12.4167 10.378 11.372 9.33334 10.0833 9.33334C8.79467 9.33334 7.75 10.378 7.75 11.6667C7.75 12.9553 8.79467 14 10.0833 14Z" stroke="#C59B68" stroke-width="1.5" stroke-miterlimit="10" stroke-linecap="round" stroke-linejoin="round"/>
</svg>
